<svg width="40" height="40" viewBox="0 0 40 40" fill="none" xmlns="http://www.w3.org/2000/svg">
<rect x="0.5" y="0.5" width="39" height="39" rx="19.5" stroke="#00B451"/>
<g clip-path="url(#clip0_1_173)">
<path d="M20 12.5596C18.4511 12.5596 17.025 12.9373 15.7217 13.6929C14.4183 14.4485 13.3889 15.4779 12.6333 16.7812C11.8778 18.0846 11.5 19.5107 11.5 21.0596C11.5 22.6085 11.8778 24.0346 12.6333 25.3379C13.3889 26.6412 14.4183 27.6707 15.7217 28.4262C17.025 29.1818 18.4511 29.5596 20 29.5596C21.5489 29.5596 22.975 29.1818 24.2783 28.4262C25.5817 27.6707 26.6111 26.6412 27.3667 25.3379C28.1222 24.0346 28.5 22.6085 28.5 21.0596C28.5 19.5107 28.1222 18.0846 27.3667 16.7812C26.6111 15.4779 25.5817 14.4485 24.2783 13.6929C22.975 12.9373 21.5489 12.5596 20 12.5596ZM25.61 16.4696C26.1389 17.1118 26.545 17.8201 26.8283 18.5946C27.1117 19.369 27.2533 20.1718 27.2533 21.0029C26.6867 20.8896 26.0822 20.7951 25.44 20.7196C24.2689 20.6062 23.1922 20.6251 22.21 20.7762L21.5867 19.3596C22.72 18.8685 23.7022 18.2829 24.5333 17.6029C24.9867 17.2251 25.3456 16.8473 25.61 16.4696ZM20 13.8062C20.9067 13.8062 21.7756 13.9668 22.6067 14.2879C23.4378 14.609 24.1744 15.0529 24.8167 15.6196C24.59 15.9596 24.2689 16.2996 23.8533 16.6396C23.06 17.3196 22.1156 17.8673 21.02 18.2829C20.2267 16.8096 19.32 15.3929 18.3 14.0329C18.8667 13.8818 19.4333 13.8062 20 13.8062ZM16.8833 14.4862C17.8656 15.8462 18.7722 17.244 19.6033 18.6796C18.2056 19.0573 16.7322 19.3218 15.1833 19.4729C14.3522 19.5485 13.5967 19.5862 12.9167 19.5862C13.1433 18.4529 13.6061 17.4423 14.305 16.5546C15.0039 15.6668 15.8633 14.9773 16.8833 14.4862ZM12.7467 21.0596V20.8329C13.3889 20.8707 14.22 20.8329 15.24 20.7196C17.0156 20.5685 18.6589 20.2662 20.17 19.8129C20.3589 20.1529 20.5667 20.5685 20.7933 21.0596L20.51 21.1162C18.9233 21.6451 17.4878 22.5707 16.2033 23.8929C15.5611 24.5729 15.0322 25.2529 14.6167 25.9329C14.0122 25.2529 13.5494 24.4973 13.2283 23.6662C12.9072 22.8351 12.7467 21.9662 12.7467 21.0596ZM20 28.3129C19.2067 28.3129 18.4228 28.1807 17.6483 27.9162C16.8739 27.6518 16.1656 27.274 15.5233 26.7829C15.8256 26.2162 16.2789 25.6118 16.8833 24.9696C18.0544 23.7607 19.5089 22.854 21.2467 22.2496H21.3033C21.9833 24.0251 22.4933 25.8573 22.8333 27.7462C21.9267 28.124 20.9822 28.3129 20 28.3129ZM24.0233 27.0662C23.9478 26.5751 23.8344 25.9896 23.6833 25.3096C23.3811 24.1385 23.0411 23.0051 22.6633 21.9096C23.6078 21.7585 24.6089 21.7585 25.6667 21.9096C26.2711 21.9851 26.7622 22.0796 27.14 22.1929C26.9889 23.2129 26.6394 24.1385 26.0917 24.9696C25.5439 25.8007 24.8544 26.4996 24.0233 27.0662Z" fill="#00B451"/>
</g>
<defs>
<clipPath id="clip0_1_173">
<rect width="17" height="25.5" fill="white" transform="matrix(1 0 0 -1 11.5 33.8096)"/>
</clipPath>
</defs>
</svg>
