<svg width="40" height="40" viewBox="0 0 40 40" fill="none" xmlns="http://www.w3.org/2000/svg">
<rect x="0.5" y="0.5" width="39" height="39" rx="19.5" stroke="#00B451"/>
<g clip-path="url(#clip0_1_170)">
<path d="M28.5 21.1162C28.5 19.5673 28.1222 18.1412 27.3667 16.8379C26.6111 15.5346 25.5817 14.4957 24.2783 13.7212C22.975 12.9468 21.5489 12.5596 20 12.5596C18.4511 12.5596 17.025 12.9468 15.7217 13.7212C14.4183 14.4957 13.3889 15.5346 12.6333 16.8379C11.8778 18.1412 11.5 19.5673 11.5 21.1162C11.5 22.514 11.8117 23.8173 12.435 25.0262C13.0583 26.2351 13.9178 27.2362 15.0133 28.0296C16.1089 28.8229 17.3367 29.3329 18.6967 29.5596V23.6096H16.4867V21.1162H18.6967V19.2462C18.6967 18.1885 18.98 17.3668 19.5467 16.7812C20.1133 16.1957 20.8878 15.9029 21.87 15.9029C22.2478 15.9029 22.6822 15.9218 23.1733 15.9596L23.7967 16.0729V18.1696H22.72C22.2289 18.1696 21.87 18.2923 21.6433 18.5379C21.4167 18.7835 21.3033 19.114 21.3033 19.5296V21.1162H23.6833L23.2867 23.6096H21.3033V29.5596C22.6633 29.3329 23.8911 28.8229 24.9867 28.0296C26.0822 27.2362 26.9417 26.2351 27.565 25.0262C28.1883 23.8173 28.5 22.514 28.5 21.1162Z" fill="#00B451"/>
</g>
<defs>
<clipPath id="clip0_1_170">
<rect width="17" height="25.5" fill="white" transform="matrix(1 0 0 -1 11.5 33.8096)"/>
</clipPath>
</defs>
</svg>
