<svg width="40" height="40" viewBox="0 0 40 40" fill="none" xmlns="http://www.w3.org/2000/svg">
<rect x="0.5" y="0.5" width="39" height="39" rx="19.5" stroke="#00B451"/>
<g clip-path="url(#clip0_1_176)">
<path d="M20 12.5596C18.4133 12.5596 17.2328 12.5785 16.4583 12.6162C15.6839 12.654 15.0133 12.7862 14.4467 13.0129C13.88 13.2396 13.3794 13.5701 12.945 14.0046C12.5106 14.439 12.18 14.9396 11.9533 15.5062C11.7267 16.0729 11.5944 16.7435 11.5567 17.5179C11.5189 18.2923 11.5 19.4729 11.5 21.0596C11.5 22.6462 11.5189 23.8268 11.5567 24.6012C11.5944 25.3757 11.7267 26.0462 11.9533 26.6129C12.18 27.1796 12.5106 27.6801 12.945 28.1146C13.3794 28.549 13.88 28.8796 14.4467 29.1062C15.0133 29.3329 15.6839 29.4651 16.4583 29.5029C17.2328 29.5407 18.4133 29.5596 20 29.5596C21.5867 29.5596 22.7672 29.5407 23.5417 29.5029C24.3161 29.4651 24.9867 29.3329 25.5533 29.1062C26.12 28.8796 26.6206 28.549 27.055 28.1146C27.4894 27.6801 27.82 27.1796 28.0467 26.6129C28.2733 26.0462 28.4056 25.3757 28.4433 24.6012C28.4811 23.8268 28.5 22.6462 28.5 21.0596C28.5 19.4729 28.4811 18.2923 28.4433 17.5179C28.4056 16.7435 28.2733 16.0729 28.0467 15.5062C27.82 14.9396 27.4894 14.439 27.055 14.0046C26.6206 13.5701 26.12 13.2396 25.5533 13.0129C24.9867 12.7862 24.3161 12.654 23.5417 12.6162C22.7672 12.5785 21.5867 12.5596 20 12.5596ZM19.2633 14.0896H20C21.5867 14.0896 22.7389 14.1085 23.4567 14.1462C24.0611 14.184 24.5617 14.2785 24.9583 14.4296C25.355 14.5807 25.695 14.7979 25.9783 15.0812C26.2617 15.3646 26.4789 15.7046 26.63 16.1012C26.7811 16.4979 26.8756 16.9985 26.9133 17.6029C26.9511 18.3207 26.97 19.4729 26.97 21.0596C26.97 22.6462 26.9511 23.7985 26.9133 24.5162C26.8756 25.1207 26.7811 25.6212 26.63 26.0179C26.4789 26.4146 26.2617 26.7546 25.9783 27.0379C25.695 27.3212 25.355 27.5385 24.9583 27.6896C24.5617 27.8407 24.0611 27.9351 23.4567 27.9729C22.7011 28.0107 21.5489 28.0296 20 28.0296C18.4511 28.0296 17.2989 28.0107 16.5433 27.9729C15.9389 27.9351 15.4383 27.8407 15.0417 27.6896C14.645 27.5385 14.305 27.3212 14.0217 27.0379C13.7383 26.7546 13.5211 26.4146 13.37 26.0179C13.2189 25.6212 13.1244 25.1207 13.0867 24.5162C13.0489 23.7607 13.03 22.599 13.03 21.0312C13.03 19.4635 13.0489 18.3207 13.0867 17.6029C13.1244 16.9985 13.2189 16.4979 13.37 16.1012C13.5211 15.7046 13.7383 15.3646 14.0217 15.0812C14.305 14.7979 14.645 14.5807 15.0417 14.4296C15.4383 14.2785 15.9578 14.184 16.6 14.1462C17.2422 14.1085 18.13 14.0896 19.2633 14.0896ZM24.5333 15.5062C24.2689 15.5062 24.0328 15.6007 23.825 15.7896C23.6172 15.9785 23.5133 16.2146 23.5133 16.4979C23.5133 16.7812 23.6172 17.0268 23.825 17.2346C24.0328 17.4423 24.2783 17.5462 24.5617 17.5462C24.845 17.5462 25.0811 17.4423 25.27 17.2346C25.4589 17.0268 25.5533 16.7812 25.5533 16.4979C25.5533 16.2146 25.4589 15.9785 25.27 15.7896C25.0811 15.6007 24.8356 15.5062 24.5333 15.5062ZM20 16.6962C19.2067 16.6962 18.47 16.8851 17.79 17.2629C17.11 17.6407 16.5717 18.1696 16.175 18.8496C15.7783 19.5296 15.58 20.2662 15.58 21.0596C15.58 21.8529 15.7783 22.5896 16.175 23.2696C16.5717 23.9496 17.11 24.4785 17.79 24.8562C18.47 25.234 19.2067 25.4229 20 25.4229C20.7933 25.4229 21.5206 25.2246 22.1817 24.8279C22.8428 24.4312 23.3622 23.9023 23.74 23.2412C24.1178 22.5801 24.3067 21.8529 24.3067 21.0596C24.3067 20.2662 24.1178 19.539 23.74 18.8779C23.3622 18.2168 22.8428 17.6879 22.1817 17.2912C21.5206 16.8946 20.7933 16.6962 20 16.6962ZM20 18.2262C20.4911 18.2262 20.9633 18.349 21.4167 18.5946C21.87 18.8401 22.2194 19.1896 22.465 19.6429C22.7106 20.0962 22.8333 20.5685 22.8333 21.0596C22.8333 21.5507 22.7106 22.0229 22.465 22.4762C22.2194 22.9296 21.87 23.279 21.4167 23.5246C20.9633 23.7701 20.4911 23.8929 20 23.8929C19.2067 23.8929 18.5361 23.619 17.9883 23.0712C17.4406 22.5235 17.1667 21.8529 17.1667 21.0596C17.1667 20.2662 17.4406 19.5957 17.9883 19.0479C18.5361 18.5001 19.2067 18.2262 20 18.2262Z" fill="#00B451"/>
</g>
<defs>
<clipPath id="clip0_1_176">
<rect width="17" height="25.5" fill="white" transform="matrix(1 0 0 -1 11.5 33.8096)"/>
</clipPath>
</defs>
</svg>
